<svg xmlns="http://www.w3.org/2000/svg" x="0px" y="0px" width="24" height="24" viewBox="0 0 172 172" style=" fill:#fff;"><g fill="none" fill-rule="nonzero" stroke="none" stroke-width="1" stroke-linecap="butt" stroke-linejoin="miter" stroke-miterlimit="10" stroke-dasharray="" stroke-dashoffset="0" font-family="none" font-weight="none" font-size="none" text-anchor="none" style="mix-blend-mode: normal"><path d="M0,172v-172h172v172z" fill="none"></path><g fill="#fff"><path d="M129,17.91667c-13.78948,0 -25.08333,11.29386 -25.08333,25.08333c0,2.09899 0.71145,3.97558 1.20378,5.9279l-42.96501,21.493c-4.61026,-5.65595 -11.33838,-9.50423 -19.15544,-9.50423c-13.78948,0 -25.08333,11.29386 -25.08333,25.08333c0,13.78947 11.29385,25.08333 25.08333,25.08333c7.81705,0 14.54517,-3.84828 19.15544,-9.50423l42.96501,21.493c-0.49233,1.95232 -1.20378,3.8289 -1.20378,5.9279c0,13.78947 11.29385,25.08333 25.08333,25.08333c13.78948,0 25.08333,-11.29386 25.08333,-25.08333c0,-13.78947 -11.29385,-25.08333 -25.08333,-25.08333c-7.81705,0 -14.54517,3.84828 -19.15544,9.50423l-42.96501,-21.493c0.49233,-1.95232 1.20378,-3.8289 1.20378,-5.9279c0,-2.09899 -0.71145,-3.97558 -1.20378,-5.9279l42.96501,-21.493c4.61026,5.65595 11.33838,9.50423 19.15544,9.50423c13.78948,0 25.08333,-11.29386 25.08333,-25.08333c0,-13.78947 -11.29385,-25.08333 -25.08333,-25.08333zM129,28.66667c7.97976,0 14.33333,6.35358 14.33333,14.33333c0,7.97975 -6.35358,14.33333 -14.33333,14.33333c-7.97976,0 -14.33333,-6.35358 -14.33333,-14.33333c0,-7.97975 6.35358,-14.33333 14.33333,-14.33333zM43,71.66667c7.97976,0 14.33333,6.35358 14.33333,14.33333c0,7.97975 -6.35358,14.33333 -14.33333,14.33333c-7.97976,0 -14.33333,-6.35358 -14.33333,-14.33333c0,-7.97975 6.35358,-14.33333 14.33333,-14.33333zM129,114.66667c7.97976,0 14.33333,6.35358 14.33333,14.33333c0,7.97975 -6.35358,14.33333 -14.33333,14.33333c-7.97976,0 -14.33333,-6.35358 -14.33333,-14.33333c0,-7.97975 6.35358,-14.33333 14.33333,-14.33333z"></path></g></g></svg>